<?xml version="1.0" encoding="utf-8"?>
<!-- Generator: Adobe Illustrator 16.0.4, SVG Export Plug-In . SVG Version: 6.00 Build 0)  -->
<!DOCTYPE svg PUBLIC "-//W3C//DTD SVG 1.1//EN" "http://www.w3.org/Graphics/SVG/1.1/DTD/svg11.dtd">
<svg version="1.1" id="Layer_1" xmlns="http://www.w3.org/2000/svg" xmlns:xlink="http://www.w3.org/1999/xlink" x="0px" y="0px"
	 width="1200px" height="500px" viewBox="0 0 1200 500" enable-background="new 0 0 1200 500" xml:space="preserve">
<title>LaTeX logo</title>
<g transform="matrix(45,0,0,45,40,40)">
	<path d="M5.46,4.4H5.21c-0.1,1.02-0.24,2.26-2,2.26H2.4c-0.47,0-0.49-0.07-0.49-0.4V0.95c0-0.34,0-0.48,0.94-0.48h0.33v-0.3
		C2.82,0.2,1.92,0.2,1.51,0.2c-0.39,0-1.17,0-1.51-0.03v0.3h0.23c0.77,0,0.79,0.11,0.79,0.47v5.25c0,0.36-0.02,0.47-0.79,0.47H0
		v0.31h5.19L5.46,4.4z"/>
	<path d="M5.29,0.16C5.25,0.04,5.23,0,5.1,0C4.97,0,4.94,0.04,4.9,0.16L3.29,4.24C3.22,4.41,3.1,4.72,2.48,4.72v0.25h1.55V4.72
		c-0.31,0-0.5-0.14-0.5-0.34c0-0.05,0.01-0.07,0.03-0.14L3.9,3.38h1.98l0.4,1.02C6.3,4.44,6.32,4.49,6.32,4.52
		c0,0.2-0.38,0.2-0.57,0.2v0.25h1.97V4.72H7.58c-0.47,0-0.52-0.07-0.59-0.27L5.29,0.16z M4.89,0.87l0.89,2.26H4L4.89,0.87z"/>
	<path d="M13.3,0.23H7.21L7.03,2.47h0.24c0.14-1.61,0.29-1.94,1.8-1.94c0.18,0,0.44,0,0.54,0.02C9.82,0.59,9.82,0.7,9.82,0.93v5.25
		c0,0.34,0,0.48-1.05,0.48h-0.4v0.31c0.41-0.03,1.42-0.03,1.88-0.03c0.46,0,1.49,0,1.9,0.03V6.66h-0.4c-1.05,0-1.05-0.14-1.05-0.48
		V0.93c0-0.2,0-0.34,0.18-0.38c0.11-0.02,0.38-0.02,0.57-0.02c1.5,0,1.65,0.33,1.79,1.94h0.25L13.3,0.23z"/>
	<path d="M18.66,6.65h-0.25c-0.25,1.53-0.48,2.26-2.19,2.26H14.9c-0.47,0-0.49-0.07-0.49-0.4V5.85h0.89c0.97,0,1.08,0.32,1.08,1.17
		h0.25V4.38h-0.25c0,0.85-0.11,1.16-1.08,1.16h-0.89V3.15c0-0.33,0.02-0.4,0.49-0.4h1.28c1.53,0,1.79,0.55,1.95,1.94h0.25L18.1,2.45
		h-5.6v0.3h0.23c0.77,0,0.79,0.11,0.79,0.47v5.22c0,0.36-0.02,0.47-0.79,0.47H12.5v0.31h5.74L18.66,6.65z"/>
	<path d="M21.67,3.12l1.37-2c0.21-0.32,0.55-0.64,1.44-0.65v-0.3H22.1v0.3c0.4,0.01,0.62,0.23,0.62,0.46c0,0.1-0.02,0.12-0.09,0.23
		l-1.14,1.68l-1.28-1.92c-0.02-0.03-0.07-0.11-0.07-0.15c0-0.12,0.22-0.29,0.64-0.3v-0.3C20.44,0.2,19.71,0.2,19.33,0.2
		c-0.31,0-0.93-0.01-1.3-0.03v0.3h0.19c0.55,0,0.74,0.07,0.93,0.35l1.83,2.77L19.35,6c-0.14,0.2-0.44,0.66-1.44,0.66v0.31h2.38V6.66
		c-0.46-0.01-0.63-0.28-0.63-0.46c0-0.09,0.03-0.13,0.1-0.24l1.41-2.09l1.58,2.38c0.02,0.04,0.05,0.08,0.05,0.11
		c0,0.12-0.22,0.29-0.65,0.3v0.31c0.35-0.03,1.08-0.03,1.45-0.03c0.42,0,0.88,0.01,1.3,0.03V6.66h-0.19c-0.52,0-0.73-0.05-0.94-0.36
		L21.67,3.12z"/>
</g>
<g>
	<polyline fill="none" stroke="#E71E25" stroke-width="10" stroke-miterlimit="10" points="40,471.5 73.952,491.5 107.905,471.5 
		141.859,491.5 175.813,471.5 209.768,491.5 243.722,471.5 277.675,491.5 311.628,471.5 345.579,491.5 379.526,471.5 413.478,491.5 
		447.432,471.5 481.383,491.5 515.334,471.5 549.285,491.5 583.237,471.5 617.189,491.5 651.146,471.5 685.1,491.5 719.056,471.5 
		753.009,491.5 786.964,471.5 820.919,491.5 854.876,471.5 888.834,491.5 922.786,471.5 956.739,491.5 990.697,471.5 
		1024.655,491.5 1058.615,471.5 1092.573,491.5 1126.537,471.5 1160.5,491.5 	"/>
</g>
</svg>
